<mxfile host="Electron" agent="Mozilla/5.0 (Macintosh; Intel Mac OS X 10_15_7) AppleWebKit/537.36 (KHTML, like Gecko) draw.io/27.0.5 Chrome/134.0.6998.205 Electron/35.3.0 Safari/537.36" version="27.0.5">
  <diagram name="AWS Static Website Architecture" id="r7RICbp1fhADq58J5300">
    <mxGraphModel dx="1234" dy="912" grid="1" gridSize="10" guides="1" tooltips="1" connect="1" arrows="1" fold="1" page="1" pageScale="1" pageWidth="1100" pageHeight="850" math="0" shadow="0">
      <root>
        <mxCell id="0" />
        <mxCell id="1" parent="0" />
        <mxCell id="title" value="AWS Static Website Architecture" style="text;html=1;strokeColor=none;fillColor=none;align=center;verticalAlign=middle;whiteSpace=wrap;rounded=0;fontSize=24;fontStyle=1;" parent="1" vertex="1">
          <mxGeometry x="350" y="20" width="400" height="40" as="geometry" />
        </mxCell>
        <mxCell id="aws-cloud" value="AWS Cloud" style="sketch=0;outlineConnect=0;gradientColor=none;html=1;whiteSpace=wrap;fontSize=12;fontStyle=0;shape=mxgraph.aws4.group;grIcon=mxgraph.aws4.group_aws_cloud;strokeColor=#879196;fillColor=none;verticalAlign=top;align=left;spacingLeft=30;fontColor=#879196;dashed=0;" parent="1" vertex="1">
          <mxGeometry x="240" y="60" width="800" height="730" as="geometry" />
        </mxCell>
        <mxCell id="internet" value="Internet" style="ellipse;shape=cloud;whiteSpace=wrap;html=1;fillColor=#f5f5f5;strokeColor=#666666;fontColor=#333333;" parent="1" vertex="1">
          <mxGeometry x="40" y="350" width="120" height="80" as="geometry" />
        </mxCell>
        <mxCell id="user" value="End User" style="sketch=0;outlineConnect=0;fontColor=#232F3E;gradientColor=none;fillColor=#232F3D;strokeColor=none;dashed=0;verticalLabelPosition=bottom;verticalAlign=top;align=center;html=1;fontSize=12;fontStyle=0;aspect=fixed;pointerEvents=1;shape=mxgraph.aws4.user;" parent="1" vertex="1">
          <mxGeometry x="70" y="240" width="60" height="60" as="geometry" />
        </mxCell>
        <mxCell id="route53" value="Route 53&lt;br&gt;(DNS)" style="sketch=0;points=[[0,0,0],[0.25,0,0],[0.5,0,0],[0.75,0,0],[1,0,0],[0,1,0],[0.25,1,0],[0.5,1,0],[0.75,1,0],[1,1,0],[0,0.25,0],[0,0.5,0],[0,0.75,0],[1,0.25,0],[1,0.5,0],[1,0.75,0]];outlineConnect=0;fontColor=#232F3E;fillColor=#8C4FFF;strokeColor=#ffffff;dashed=0;verticalLabelPosition=bottom;verticalAlign=top;align=center;html=1;fontSize=12;fontStyle=0;aspect=fixed;shape=mxgraph.aws4.resourceIcon;resIcon=mxgraph.aws4.route_53;" parent="1" vertex="1">
          <mxGeometry x="272" y="80" width="78" height="78" as="geometry" />
        </mxCell>
        <mxCell id="acm" value="ACM&lt;br&gt;SSL Certificate" style="sketch=0;points=[[0,0,0],[0.25,0,0],[0.5,0,0],[0.75,0,0],[1,0,0],[0,1,0],[0.25,1,0],[0.5,1,0],[0.75,1,0],[1,1,0],[0,0.25,0],[0,0.5,0],[0,0.75,0],[1,0.25,0],[1,0.5,0],[1,0.75,0]];outlineConnect=0;fontColor=#232F3E;fillColor=#DD344C;strokeColor=#ffffff;dashed=0;verticalLabelPosition=bottom;verticalAlign=top;align=center;html=1;fontSize=12;fontStyle=0;aspect=fixed;shape=mxgraph.aws4.resourceIcon;resIcon=mxgraph.aws4.certificate_manager_3;" parent="1" vertex="1">
          <mxGeometry x="522" y="120" width="78" height="78" as="geometry" />
        </mxCell>
        <mxCell id="cloudfront" value="CloudFront&lt;br&gt;(CDN)" style="sketch=0;points=[[0,0,0],[0.25,0,0],[0.5,0,0],[0.75,0,0],[1,0,0],[0,1,0],[0.25,1,0],[0.5,1,0],[0.75,1,0],[1,1,0],[0,0.25,0],[0,0.5,0],[0,0.75,0],[1,0.25,0],[1,0.5,0],[1,0.75,0]];outlineConnect=0;fontColor=#232F3E;fillColor=#8C4FFF;strokeColor=#ffffff;dashed=0;verticalLabelPosition=bottom;verticalAlign=top;align=center;html=1;fontSize=12;fontStyle=0;aspect=fixed;shape=mxgraph.aws4.resourceIcon;resIcon=mxgraph.aws4.cloudfront;" parent="1" vertex="1">
          <mxGeometry x="340" y="350" width="78" height="78" as="geometry" />
        </mxCell>
        <mxCell id="s3-website" value="S3 Bucket&lt;br&gt;(Static Website)" style="sketch=0;points=[[0,0,0],[0.25,0,0],[0.5,0,0],[0.75,0,0],[1,0,0],[0,1,0],[0.25,1,0],[0.5,1,0],[0.75,1,0],[1,1,0],[0,0.25,0],[0,0.5,0],[0,0.75,0],[1,0.25,0],[1,0.5,0],[1,0.75,0]];outlineConnect=0;fontColor=#232F3E;fillColor=#7AA116;strokeColor=#ffffff;dashed=0;verticalLabelPosition=bottom;verticalAlign=top;align=center;html=1;fontSize=12;fontStyle=0;aspect=fixed;shape=mxgraph.aws4.resourceIcon;resIcon=mxgraph.aws4.s3;" parent="1" vertex="1">
          <mxGeometry x="708" y="434" width="78" height="78" as="geometry" />
        </mxCell>
        <mxCell id="s3-logs" value="S3 Bucket&lt;br&gt;(CloudFront Logs)" style="sketch=0;points=[[0,0,0],[0.25,0,0],[0.5,0,0],[0.75,0,0],[1,0,0],[0,1,0],[0.25,1,0],[0.5,1,0],[0.75,1,0],[1,1,0],[0,0.25,0],[0,0.5,0],[0,0.75,0],[1,0.25,0],[1,0.5,0],[1,0.75,0]];outlineConnect=0;fontColor=#232F3E;fillColor=#7AA116;strokeColor=#ffffff;dashed=0;verticalLabelPosition=bottom;verticalAlign=top;align=center;html=1;fontSize=12;fontStyle=0;aspect=fixed;shape=mxgraph.aws4.resourceIcon;resIcon=mxgraph.aws4.s3;" parent="1" vertex="1">
          <mxGeometry x="570" y="450" width="78" height="78" as="geometry" />
        </mxCell>
        <mxCell id="oac" value="Origin Access&lt;br&gt;Control (OAC)" style="sketch=0;outlineConnect=0;fontColor=#232F3E;gradientColor=none;fillColor=#DD344C;strokeColor=none;dashed=0;verticalLabelPosition=bottom;verticalAlign=top;align=center;html=1;fontSize=12;fontStyle=0;aspect=fixed;pointerEvents=1;shape=mxgraph.aws4.identity_access_management;" parent="1" vertex="1">
          <mxGeometry x="440" y="560" width="78" height="78" as="geometry" />
        </mxCell>
        <mxCell id="cloudwatch" value="CloudWatch&lt;br&gt;(Monitoring)" style="sketch=0;points=[[0,0,0],[0.25,0,0],[0.5,0,0],[0.75,0,0],[1,0,0],[0,1,0],[0.25,1,0],[0.5,1,0],[0.75,1,0],[1,1,0],[0,0.25,0],[0,0.5,0],[0,0.75,0],[1,0.25,0],[1,0.5,0],[1,0.75,0]];outlineConnect=0;fontColor=#232F3E;fillColor=#759C3E;strokeColor=#ffffff;dashed=0;verticalLabelPosition=bottom;verticalAlign=top;align=center;html=1;fontSize=12;fontStyle=0;aspect=fixed;shape=mxgraph.aws4.resourceIcon;resIcon=mxgraph.aws4.cloudwatch_2;" parent="1" vertex="1">
          <mxGeometry x="630" y="120" width="78" height="78" as="geometry" />
        </mxCell>
        <mxCell id="waf" value="WAF&lt;br&gt;(Web Application Firewall)" style="sketch=0;points=[[0,0,0],[0.25,0,0],[0.5,0,0],[0.75,0,0],[1,0,0],[0,1,0],[0.25,1,0],[0.5,1,0],[0.75,1,0],[1,1,0],[0,0.25,0],[0,0.5,0],[0,0.75,0],[1,0.25,0],[1,0.5,0],[1,0.75,0]];outlineConnect=0;fontColor=#232F3E;fillColor=#DD344C;strokeColor=#ffffff;dashed=0;verticalLabelPosition=bottom;verticalAlign=top;align=center;html=1;fontSize=12;fontStyle=0;aspect=fixed;shape=mxgraph.aws4.resourceIcon;resIcon=mxgraph.aws4.waf;" parent="1" vertex="1">
          <mxGeometry x="272" y="570" width="78" height="78" as="geometry" />
        </mxCell>
        <mxCell id="edge-locations" value="Edge Locations&lt;br&gt;(Global)" style="sketch=0;outlineConnect=0;fontColor=#232F3E;gradientColor=none;fillColor=#8C4FFF;strokeColor=none;dashed=0;verticalLabelPosition=bottom;verticalAlign=top;align=center;html=1;fontSize=12;fontStyle=0;aspect=fixed;pointerEvents=1;shape=mxgraph.aws4.edge_location;" parent="1" vertex="1">
          <mxGeometry x="950" y="250" width="78" height="78" as="geometry" />
        </mxCell>
        <mxCell id="edge1" style="edgeStyle=orthogonalEdgeStyle;rounded=0;orthogonalLoop=1;jettySize=auto;html=1;strokeWidth=2;" parent="1" source="user" target="internet" edge="1">
          <mxGeometry relative="1" as="geometry" />
        </mxCell>
        <mxCell id="edge2" style="edgeStyle=orthogonalEdgeStyle;rounded=0;orthogonalLoop=1;jettySize=auto;html=1;strokeWidth=2;strokeColor=#8C4FFF;" parent="1" source="internet" target="route53" edge="1">
          <mxGeometry relative="1" as="geometry">
            <Array as="points">
              <mxPoint x="200" y="390" />
              <mxPoint x="200" y="210" />
              <mxPoint x="311" y="210" />
            </Array>
          </mxGeometry>
        </mxCell>
        <mxCell id="edge2-label" value="1. DNS Query&lt;br&gt;elmersho.com" style="edgeLabel;html=1;align=center;verticalAlign=middle;resizable=0;points=[];" parent="edge2" vertex="1" connectable="0">
          <mxGeometry x="-0.3" y="-20" relative="1" as="geometry">
            <mxPoint x="20" y="-20" as="offset" />
          </mxGeometry>
        </mxCell>
        <mxCell id="edge3" style="edgeStyle=orthogonalEdgeStyle;rounded=0;orthogonalLoop=1;jettySize=auto;html=1;strokeWidth=2;strokeColor=#8C4FFF;" parent="1" source="route53" target="cloudfront" edge="1">
          <mxGeometry relative="1" as="geometry" />
        </mxCell>
        <mxCell id="edge3-label" value="2. Returns CloudFront&lt;br&gt;Distribution URL" style="edgeLabel;html=1;align=center;verticalAlign=middle;resizable=0;points=[];" parent="edge3" vertex="1" connectable="0">
          <mxGeometry x="-0.2" y="20" relative="1" as="geometry">
            <mxPoint y="20" as="offset" />
          </mxGeometry>
        </mxCell>
        <mxCell id="edge4" style="edgeStyle=orthogonalEdgeStyle;rounded=0;orthogonalLoop=1;jettySize=auto;html=1;strokeWidth=2;" parent="1" source="internet" target="cloudfront" edge="1">
          <mxGeometry relative="1" as="geometry" />
        </mxCell>
        <mxCell id="edge4-label" value="3. HTTPS Request" style="edgeLabel;html=1;align=center;verticalAlign=middle;resizable=0;points=[];" parent="edge4" vertex="1" connectable="0">
          <mxGeometry x="-0.2" y="-15" relative="1" as="geometry">
            <mxPoint x="15" y="-15" as="offset" />
          </mxGeometry>
        </mxCell>
        <mxCell id="edge5" style="edgeStyle=orthogonalEdgeStyle;rounded=0;orthogonalLoop=1;jettySize=auto;html=1;strokeWidth=2;strokeColor=#DD344C;dashed=1;" parent="1" source="acm" target="cloudfront" edge="1">
          <mxGeometry relative="1" as="geometry">
            <Array as="points">
              <mxPoint x="440" y="159" />
              <mxPoint x="440" y="359" />
            </Array>
          </mxGeometry>
        </mxCell>
        <mxCell id="edge5-label" value="SSL/TLS" style="edgeLabel;html=1;align=center;verticalAlign=middle;resizable=0;points=[];" parent="edge5" vertex="1" connectable="0">
          <mxGeometry x="-0.2" y="-15" relative="1" as="geometry">
            <mxPoint y="-15" as="offset" />
          </mxGeometry>
        </mxCell>
        <mxCell id="edge6" style="edgeStyle=orthogonalEdgeStyle;rounded=0;orthogonalLoop=1;jettySize=auto;html=1;strokeWidth=2;" parent="1" source="cloudfront" target="oac" edge="1">
          <mxGeometry relative="1" as="geometry" />
        </mxCell>
        <mxCell id="edge7" style="edgeStyle=orthogonalEdgeStyle;rounded=0;orthogonalLoop=1;jettySize=auto;html=1;strokeWidth=2;" parent="1" source="oac" target="s3-website" edge="1">
          <mxGeometry relative="1" as="geometry" />
        </mxCell>
        <mxCell id="edge7-label" value="4. Fetch Content&lt;br&gt;(Authenticated)" style="edgeLabel;html=1;align=center;verticalAlign=middle;resizable=0;points=[];" parent="edge7" vertex="1" connectable="0">
          <mxGeometry x="-0.2" y="-20" relative="1" as="geometry">
            <mxPoint x="10" y="-20" as="offset" />
          </mxGeometry>
        </mxCell>
        <mxCell id="edge8" style="edgeStyle=orthogonalEdgeStyle;rounded=0;orthogonalLoop=1;jettySize=auto;html=1;strokeWidth=2;strokeColor=#DD344C;dashed=1;" parent="1" source="cloudfront" target="waf" edge="1">
          <mxGeometry relative="1" as="geometry" />
        </mxCell>
        <mxCell id="edge8-label" value="Security Rules" style="edgeLabel;html=1;align=center;verticalAlign=middle;resizable=0;points=[];" parent="edge8" vertex="1" connectable="0">
          <mxGeometry x="-0.2" y="15" relative="1" as="geometry">
            <mxPoint y="15" as="offset" />
          </mxGeometry>
        </mxCell>
        <mxCell id="edge9" style="edgeStyle=orthogonalEdgeStyle;rounded=0;orthogonalLoop=1;jettySize=auto;html=1;strokeWidth=2;strokeColor=#7AA116;dashed=1;" parent="1" source="cloudfront" target="s3-logs" edge="1">
          <mxGeometry relative="1" as="geometry">
            <Array as="points">
              <mxPoint x="389" y="480" />
              <mxPoint x="639" y="480" />
            </Array>
          </mxGeometry>
        </mxCell>
        <mxCell id="edge9-label" value="Access Logs" style="edgeLabel;html=1;align=center;verticalAlign=middle;resizable=0;points=[];" parent="edge9" vertex="1" connectable="0">
          <mxGeometry x="-0.2" y="-15" relative="1" as="geometry">
            <mxPoint y="-15" as="offset" />
          </mxGeometry>
        </mxCell>
        <mxCell id="edge10" style="edgeStyle=orthogonalEdgeStyle;rounded=0;orthogonalLoop=1;jettySize=auto;html=1;strokeWidth=2;strokeColor=#759C3E;dashed=1;exitX=1;exitY=0.5;exitDx=0;exitDy=0;exitPerimeter=0;entryX=0.5;entryY=0;entryDx=0;entryDy=0;entryPerimeter=0;" parent="1" source="cloudfront" target="s3-logs" edge="1">
          <mxGeometry relative="1" as="geometry">
            <Array as="points">
              <mxPoint x="490" y="389" />
              <mxPoint x="490" y="390" />
              <mxPoint x="681" y="390" />
              <mxPoint x="681" y="440" />
              <mxPoint x="609" y="440" />
            </Array>
            <mxPoint x="490" y="337" as="sourcePoint" />
            <mxPoint x="620" y="430" as="targetPoint" />
          </mxGeometry>
        </mxCell>
        <mxCell id="edge10-label" value="Metrics" style="edgeLabel;html=1;align=center;verticalAlign=middle;resizable=0;points=[];" parent="edge10" vertex="1" connectable="0">
          <mxGeometry x="-0.2" y="-15" relative="1" as="geometry">
            <mxPoint y="-15" as="offset" />
          </mxGeometry>
        </mxCell>
        <mxCell id="edge11" style="edgeStyle=orthogonalEdgeStyle;rounded=0;orthogonalLoop=1;jettySize=auto;html=1;strokeWidth=2;strokeColor=#759C3E;dashed=1;" parent="1" source="s3-website" target="cloudwatch" edge="1">
          <mxGeometry relative="1" as="geometry" />
        </mxCell>
        <mxCell id="edge12" style="edgeStyle=orthogonalEdgeStyle;rounded=0;orthogonalLoop=1;jettySize=auto;html=1;strokeWidth=2;strokeColor=#8C4FFF;dashed=1;" parent="1" source="cloudfront" target="edge-locations" edge="1">
          <mxGeometry relative="1" as="geometry">
            <Array as="points">
              <mxPoint x="389" y="300" />
              <mxPoint x="959" y="300" />
            </Array>
          </mxGeometry>
        </mxCell>
        <mxCell id="edge12-label" value="Cache Distribution" style="edgeLabel;html=1;align=center;verticalAlign=middle;resizable=0;points=[];" parent="edge12" vertex="1" connectable="0">
          <mxGeometry x="-0.2" y="-15" relative="1" as="geometry">
            <mxPoint y="-15" as="offset" />
          </mxGeometry>
        </mxCell>
        <mxCell id="content-box" value="&lt;b&gt;Static Content&lt;/b&gt;&lt;br&gt;• HTML Files&lt;br&gt;• CSS Stylesheets&lt;br&gt;• JavaScript Files&lt;br&gt;• Images &amp; Assets&lt;br&gt;• Deployment Info" style="rounded=1;whiteSpace=wrap;html=1;fillColor=#f5f5f5;strokeColor=#666666;fontColor=#333333;align=left;verticalAlign=top;spacingLeft=10;spacingTop=10;" parent="1" vertex="1">
          <mxGeometry x="800" y="362" width="140" height="150" as="geometry" />
        </mxCell>
        <mxCell id="features-box" value="&lt;b&gt;Key Features&lt;/b&gt;&lt;br&gt;• Global CDN&lt;br&gt;• HTTPS/SSL&lt;br&gt;• DDoS Protection&lt;br&gt;• Access Control&lt;br&gt;• Caching&lt;br&gt;• Monitoring&lt;br&gt;• Logging&lt;br&gt;• Auto-scaling" style="rounded=1;whiteSpace=wrap;html=1;fillColor=#e1d5e7;strokeColor=#9673a6;align=left;verticalAlign=top;spacingLeft=10;spacingTop=10;" parent="1" vertex="1">
          <mxGeometry x="820" y="570" width="200" height="200" as="geometry" />
        </mxCell>
      </root>
    </mxGraphModel>
  </diagram>
</mxfile>
